<svg width="20" height="11" viewBox="0 0 20 11" fill="none" xmlns="http://www.w3.org/2000/svg">
<path d="M15 0.0183105H11V2.01831H15C16.65 2.01831 18 3.36831 18 5.01831C18 6.66831 16.65 8.01831 15 8.01831H11V10.0183H15C17.76 10.0183 20 7.77831 20 5.01831C20 2.25831 17.76 0.0183105 15 0.0183105ZM9 8.01831H5C3.35 8.01831 2 6.66831 2 5.01831C2 3.36831 3.35 2.01831 5 2.01831H9V0.0183105H5C2.24 0.0183105 0 2.25831 0 5.01831C0 7.77831 2.24 10.0183 5 10.0183H9V8.01831ZM6 4.01831H14V6.01831H6V4.01831Z" fill="white"/>
</svg>
