<svg width="32" height="32" viewBox="0 0 32 32" fill="none" xmlns="http://www.w3.org/2000/svg">
<path d="M1.70711 0.292893C1.31658 -0.0976311 0.683417 -0.0976311 0.292893 0.292893C-0.0976311 0.683417 -0.0976311 1.31658 0.292893 1.70711L14.5858 16L0.292893 30.2929C-0.0976311 30.6834 -0.0976311 31.3166 0.292893 31.7071C0.683417 32.0976 1.31658 32.0976 1.70711 31.7071L16 17.4142L30.2929 31.7071C30.6834 32.0976 31.3166 32.0976 31.7071 31.7071C32.0976 31.3166 32.0976 30.6834 31.7071 30.2929L17.4142 16L31.7071 1.70711C32.0976 1.31658 32.0976 0.683417 31.7071 0.292893C31.3166 -0.0976311 30.6834 -0.0976311 30.2929 0.292893L16 14.5858L1.70711 0.292893Z" fill="black"/>
</svg>
