<svg width="18" height="17" viewBox="0 0 20 19" fill="none" xmlns="http://www.w3.org/2000/svg">
<path fill-rule="evenodd" clip-rule="evenodd" d="M0.69519 1C0.69519 0.447715 1.15009 0 1.71123 0H14.8385C15.3997 0 15.8545 0.447715 15.8545 1V4.08H18.984C19.5451 4.08 20 4.52772 20 5.08V18C20 18.5523 19.5451 19 18.984 19H5.85669C5.29554 19 4.84065 18.5523 4.84065 18V14.92H1.71123C1.15009 14.92 0.69519 14.4723 0.69519 13.92V1ZM6.87273 13.6542V17H17.9679V6.08H14.5685L6.87273 13.6542ZM11.6947 6.08L6.87273 10.8258V6.08H11.6947ZM13.7267 4.08H5.85669C5.29554 4.08 4.84065 4.52772 4.84065 5.08V12.8258L4.74492 12.92H2.72728V2H13.8225V3.98579L13.7267 4.08Z" fill="#E5E5E5"/>
</svg>
