<svg width="1118" height="108" viewBox="0 0 1118 108" fill="none"
  xmlns="http://www.w3.org/2000/svg">
  <g filter="url(#filter0_d_42_52)">
    <path d="M29.7535 2.63819L46.085 63.8191L66.1853 2.63819H85.783L105.883 63.8191L122.215 2.63819H147.968L119.702 97.3618H94.5769L75.9841 42.4623L57.3914 97.3618H32.266L4 2.63819H29.7535Z" fill="white"/>
    <path d="M182.577 39.196H218.129V2.63819H242.752V97.3618H218.129V58.2915H182.577V97.3618H157.954V2.63819H182.577V39.196Z" fill="white"/>
    <path d="M284.084 50C284.084 53.7688 284.796 57.2446 286.22 60.4271C287.643 63.6097 289.57 66.3735 291.998 68.7186C294.427 71.0636 297.233 72.9062 300.415 74.2462C303.682 75.5025 307.116 76.1307 310.717 76.1307C314.318 76.1307 317.71 75.5025 320.893 74.2462C324.159 72.9062 327.006 71.0636 329.435 68.7186C331.948 66.3735 333.916 63.6097 335.34 60.4271C336.763 57.2446 337.475 53.7688 337.475 50C337.475 46.2312 336.763 42.7554 335.34 39.5729C333.916 36.3903 331.948 33.6265 329.435 31.2814C327.006 28.9363 324.159 27.1357 320.893 25.8794C317.71 24.5394 314.318 23.8693 310.717 23.8693C307.116 23.8693 303.682 24.5394 300.415 25.8794C297.233 27.1357 294.427 28.9363 291.998 31.2814C289.57 33.6265 287.643 36.3903 286.22 39.5729C284.796 42.7554 284.084 46.2312 284.084 50ZM258.33 50C258.33 42.9648 259.629 36.4322 262.225 30.402C264.821 24.2881 268.422 18.9699 273.029 14.4472C277.635 9.92462 283.121 6.40703 289.486 3.89447C295.935 1.29816 303.012 0 310.717 0C318.338 0 325.373 1.29816 331.822 3.89447C338.271 6.40703 343.799 9.92462 348.405 14.4472C353.095 18.9699 356.738 24.2881 359.334 30.402C361.931 36.4322 363.229 42.9648 363.229 50C363.229 57.0352 361.931 63.6097 359.334 69.7236C356.738 75.7538 353.095 81.0301 348.405 85.5528C343.799 90.0754 338.271 93.6348 331.822 96.2311C325.373 98.7437 318.338 100 310.717 100C303.012 100 295.935 98.7437 289.486 96.2311C283.121 93.6348 277.635 90.0754 273.029 85.5528C268.422 81.0301 264.821 75.7538 262.225 69.7236C259.629 63.6097 258.33 57.0352 258.33 50Z" fill="white"/>
    <path d="M389.837 2.63819H411.319L388.204 44.3467H373.631L389.837 2.63819Z" fill="white"/>
    <path d="M479.864 26.8844C477.184 24.7069 474.504 23.1156 471.824 22.1106C469.144 21.0218 466.548 20.4774 464.035 20.4774C460.853 20.4774 458.257 21.2312 456.247 22.7387C454.237 24.2462 453.232 26.2144 453.232 28.6432C453.232 30.3183 453.734 31.7002 454.739 32.7889C455.744 33.8777 457.042 34.8409 458.634 35.6784C460.309 36.4322 462.151 37.1022 464.161 37.6884C466.255 38.2747 468.307 38.9028 470.317 39.5729C478.357 42.2529 484.22 45.8543 487.905 50.3769C491.673 54.8157 493.558 60.6365 493.558 67.8392C493.558 72.6968 492.72 77.0938 491.045 81.0301C489.454 84.9665 487.067 88.3585 483.885 91.206C480.786 93.9698 476.933 96.1055 472.327 97.6131C467.804 99.2044 462.654 100 456.875 100C444.898 100 433.801 96.4405 423.584 89.3216L434.136 69.4724C437.821 72.7387 441.465 75.1675 445.066 76.7588C448.667 78.3501 452.227 79.1457 455.744 79.1457C459.764 79.1457 462.737 78.2244 464.664 76.3819C466.674 74.5394 467.679 72.4456 467.679 70.1005C467.679 68.6767 467.427 67.4623 466.925 66.4573C466.422 65.3685 465.585 64.4054 464.412 63.5678C463.24 62.6466 461.69 61.809 459.764 61.0553C457.922 60.3015 455.66 59.464 452.98 58.5427C449.798 57.5377 446.657 56.4489 443.558 55.2764C440.543 54.0201 437.821 52.3869 435.393 50.3769C433.048 48.3668 431.121 45.8543 429.614 42.8392C428.19 39.7404 427.478 35.8459 427.478 31.1558C427.478 26.4657 428.232 22.2362 429.739 18.4673C431.331 14.6147 433.508 11.3484 436.272 8.66834C439.12 5.90452 442.553 3.76884 446.573 2.26131C450.677 0.753768 455.242 0 460.267 0C464.957 0 469.856 0.670015 474.965 2.01005C480.074 3.26633 484.973 5.15075 489.663 7.66331L479.864 26.8844Z" fill="white"/>
    <path d="M567.593 2.63819L583.925 63.8191L604.025 2.63819H623.623L643.723 63.8191L660.055 2.63819H685.808L657.542 97.3618H632.417L613.824 42.4623L595.231 97.3618H570.106L541.84 2.63819H567.593Z" fill="white"/>
    <path d="M715.313 50C715.313 53.7688 716.024 57.2446 717.448 60.4271C718.872 63.6097 720.798 66.3735 723.227 68.7186C725.656 71.0636 728.462 72.9062 731.644 74.2462C734.91 75.5025 738.344 76.1307 741.945 76.1307C745.547 76.1307 748.939 75.5025 752.121 74.2462C755.388 72.9062 758.235 71.0636 760.664 68.7186C763.176 66.3735 765.145 63.6097 766.568 60.4271C767.992 57.2446 768.704 53.7688 768.704 50C768.704 46.2312 767.992 42.7554 766.568 39.5729C765.145 36.3903 763.176 33.6265 760.664 31.2814C758.235 28.9363 755.388 27.1357 752.121 25.8794C748.939 24.5394 745.547 23.8693 741.945 23.8693C738.344 23.8693 734.91 24.5394 731.644 25.8794C728.462 27.1357 725.656 28.9363 723.227 31.2814C720.798 33.6265 718.872 36.3903 717.448 39.5729C716.024 42.7554 715.313 46.2312 715.313 50ZM689.559 50C689.559 42.9648 690.857 36.4322 693.454 30.402C696.05 24.2881 699.651 18.9699 704.257 14.4472C708.864 9.92462 714.349 6.40703 720.715 3.89447C727.163 1.29816 734.24 0 741.945 0C749.567 0 756.602 1.29816 763.051 3.89447C769.5 6.40703 775.027 9.92462 779.634 14.4472C784.324 18.9699 787.967 24.2881 790.563 30.402C793.159 36.4322 794.457 42.9648 794.457 50C794.457 57.0352 793.159 63.6097 790.563 69.7236C787.967 75.7538 784.324 81.0301 779.634 85.5528C775.027 90.0754 769.5 93.6348 763.051 96.2311C756.602 98.7437 749.567 100 741.945 100C734.24 100 727.163 98.7437 720.715 96.2311C714.349 93.6348 708.864 90.0754 704.257 85.5528C699.651 81.0301 696.05 75.7538 693.454 69.7236C690.857 63.6097 689.559 57.0352 689.559 50Z" fill="white"/>
    <path d="M834.634 44.9749H839.282C844.139 44.9749 847.866 43.9698 850.463 41.9598C853.059 39.9497 854.357 37.0603 854.357 33.2915C854.357 29.5226 853.059 26.6332 850.463 24.6231C847.866 22.6131 844.139 21.608 839.282 21.608H834.634V44.9749ZM888.779 97.3618H858.126L834.634 60.9296V97.3618H810.011V2.63819H848.327C853.603 2.63819 858.21 3.43384 862.146 5.02513C866.082 6.53267 869.307 8.62647 871.819 11.3065C874.415 13.9866 876.342 17.0854 877.598 20.603C878.938 24.1206 879.608 27.8894 879.608 31.9095C879.608 39.1122 877.849 44.9749 874.332 49.4975C870.898 53.9363 865.789 56.9514 859.005 58.5427L888.779 97.3618Z" fill="white"/>
    <path d="M951.088 26.8844C948.408 24.7069 945.728 23.1156 943.047 22.1106C940.367 21.0218 937.771 20.4774 935.259 20.4774C932.076 20.4774 929.48 21.2312 927.47 22.7387C925.46 24.2462 924.455 26.2144 924.455 28.6432C924.455 30.3183 924.957 31.7002 925.962 32.7889C926.967 33.8777 928.265 34.8409 929.857 35.6784C931.532 36.4322 933.374 37.1022 935.384 37.6884C937.478 38.2747 939.53 38.9028 941.54 39.5729C949.58 42.2529 955.443 45.8543 959.128 50.3769C962.896 54.8157 964.781 60.6365 964.781 67.8392C964.781 72.6968 963.943 77.0938 962.268 81.0301C960.677 84.9665 958.29 88.3585 955.108 91.206C952.009 93.9698 948.156 96.1055 943.55 97.6131C939.027 99.2044 933.877 100 928.098 100C916.121 100 905.024 96.4405 894.807 89.3216L905.359 69.4724C909.044 72.7387 912.688 75.1675 916.289 76.7588C919.89 78.3501 923.45 79.1457 926.967 79.1457C930.987 79.1457 933.961 78.2244 935.887 76.3819C937.897 74.5394 938.902 72.4456 938.902 70.1005C938.902 68.6767 938.651 67.4623 938.148 66.4573C937.646 65.3685 936.808 64.4054 935.635 63.5678C934.463 62.6466 932.914 61.809 930.987 61.0553C929.145 60.3015 926.883 59.464 924.203 58.5427C921.021 57.5377 917.88 56.4489 914.781 55.2764C911.766 54.0201 909.044 52.3869 906.616 50.3769C904.271 48.3668 902.344 45.8543 900.837 42.8392C899.413 39.7404 898.701 35.8459 898.701 31.1558C898.701 26.4657 899.455 22.2362 900.963 18.4673C902.554 14.6147 904.731 11.3484 907.495 8.66834C910.343 5.90452 913.776 3.76884 917.797 2.26131C921.9 0.753768 926.465 0 931.49 0C936.18 0 941.079 0.670015 946.188 2.01005C951.297 3.26633 956.196 5.15075 960.886 7.66331L951.088 26.8844Z" fill="white"/>
    <path d="M1034.19 23.4925H1004.92V39.3216H1032.55V60.1759H1004.92V76.5075H1034.19V97.3618H980.294V2.63819H1034.19V23.4925Z" fill="white"/>
    <path d="M1068.15 65.5779V41.0804C1069.15 41.2479 1070.07 41.4154 1070.91 41.5829C1071.75 41.6667 1072.54 41.7085 1073.3 41.7085C1075.56 41.7085 1077.69 41.4154 1079.7 40.8291C1081.71 40.1591 1083.43 39.2797 1084.85 38.191C1086.36 37.1022 1087.53 35.804 1088.37 34.2965C1089.21 32.7052 1089.63 30.9883 1089.63 29.1457C1089.63 26.6332 1088.79 24.4556 1087.12 22.6131C1085.44 20.7705 1083.18 19.8492 1080.33 19.8492C1077.74 19.8492 1075.64 20.7286 1074.05 22.4874C1072.54 24.2462 1071.79 26.5494 1071.79 29.397H1046.79C1046.79 25.1256 1047.63 21.2312 1049.3 17.7136C1051.06 14.1122 1053.45 11.0134 1056.46 8.41709C1059.56 5.73702 1063.16 3.68509 1067.27 2.26131C1071.45 0.753768 1075.98 0 1080.83 0C1085.78 0 1090.26 0.837519 1094.28 2.51256C1098.38 4.10385 1101.9 6.2814 1104.83 9.04523C1107.76 11.809 1110.02 14.9916 1111.61 18.593C1113.2 22.1943 1114 25.9213 1114 29.7739C1114 42.3367 1106.42 51.2563 1091.26 56.5327V65.5779H1068.15ZM1065.63 85.3015C1065.63 83.2915 1066.01 81.407 1066.76 79.6482C1067.52 77.8057 1068.57 76.2144 1069.91 74.8744C1071.24 73.5343 1072.79 72.4874 1074.55 71.7337C1076.4 70.9799 1078.32 70.603 1080.33 70.603C1082.34 70.603 1084.23 70.9799 1085.99 71.7337C1087.83 72.4874 1089.42 73.5343 1090.76 74.8744C1092.1 76.2144 1093.15 77.8057 1093.9 79.6482C1094.65 81.407 1095.03 83.2915 1095.03 85.3015C1095.03 87.3115 1094.65 89.2379 1093.9 91.0804C1093.15 92.8392 1092.1 94.3886 1090.76 95.7286C1089.42 97.0687 1087.83 98.1156 1085.99 98.8693C1084.23 99.6231 1082.34 100 1080.33 100C1078.32 100 1076.4 99.6231 1074.55 98.8693C1072.79 98.1156 1071.24 97.0687 1069.91 95.7286C1068.57 94.3886 1067.52 92.8392 1066.76 91.0804C1066.01 89.2379 1065.63 87.3115 1065.63 85.3015Z" fill="white"/>
  </g>
  <defs>
    <filter id="filter0_d_42_52" x="0" y="0" width="1118" height="108" filterUnits="userSpaceOnUse" color-interpolation-filters="sRGB">
      <feFlood flood-opacity="0" result="BackgroundImageFix"/>
      <feColorMatrix in="SourceAlpha" type="matrix" values="0 0 0 0 0 0 0 0 0 0 0 0 0 0 0 0 0 0 127 0" result="hardAlpha"/>
      <feOffset dy="4"/>
      <feGaussianBlur stdDeviation="2"/>
      <feComposite in2="hardAlpha" operator="out"/>
      <feColorMatrix type="matrix" values="0 0 0 0 0 0 0 0 0 0 0 0 0 0 0 0 0 0 0.25 0"/>
      <feBlend mode="normal" in2="BackgroundImageFix" result="effect1_dropShadow_42_52"/>
      <feBlend mode="normal" in="SourceGraphic" in2="effect1_dropShadow_42_52" result="shape"/>
    </filter>
  </defs>
</svg>
